<svg xmlns="http://www.w3.org/2000/svg" viewBox="0 0 283.46 482.83"><defs><style>.cls-1{fill:#007f3f;}.cls-2{fill:#fff;}</style></defs><g id="Layer_2" data-name="Layer 2"><g id="Layer_1-2" data-name="Layer 1"><path class="cls-1" d="M0,5.66V277.81a5.65,5.65,0,0,0,5.66,5.65H277.81a5.65,5.65,0,0,0,5.65-5.65V5.66A5.65,5.65,0,0,0,277.81,0H5.66A5.65,5.65,0,0,0,0,5.66ZM251.48,217.32h-72.7a3.64,3.64,0,0,1-3.64-3.84A3.79,3.79,0,0,1,179,210h7.56l2.34-2.34a7.5,7.5,0,0,0-5.11-12.8,7.81,7.81,0,0,0-5.7,2.39L159.7,215.66a5.67,5.67,0,0,1-4,1.66h-9.83a3.64,3.64,0,0,1-3.64-3.84,3.79,3.79,0,0,1,3.84-3.44h5.77l2.33-2.34a7.5,7.5,0,0,0-5.1-12.8,7.81,7.81,0,0,0-5.7,2.39L125,215.66a5.7,5.7,0,0,1-4,1.66h-9.61a3.64,3.64,0,0,1-3.63-3.84,3.78,3.78,0,0,1,3.84-3.44h5.53l2.34-2.34a7.5,7.5,0,0,0-5.1-12.8,7.84,7.84,0,0,0-5.71,2.39L90.27,215.66a5.66,5.66,0,0,1-4,1.66H32a3.64,3.64,0,0,1-3.63-3.84A3.78,3.78,0,0,1,32.19,210H66.81C40,187.58,40.64,138.75,41.42,124.87a4,4,0,0,1,4-3.74h2.17a5.73,5.73,0,0,1,5.8,6C52.37,145.05,71,172,86.23,172H194.75a132.8,132.8,0,0,0-22.33-13.27A78.71,78.71,0,0,0,154.24,153a97.69,97.69,0,0,0-39,0c-3.23.66-10.59,3-17,5.15a4.86,4.86,0,0,1-5.87-6.81c1-1.94,1.79-3.59,2.1-4.32A64.58,64.58,0,0,0,80.56,76.18l-.19-.2a4.62,4.62,0,0,1,4.44-7.74,391.56,391.56,0,0,1,49.24,17.07,392.94,392.94,0,0,1,67,36.36q12.7,8.58,24.68,18.1a4.87,4.87,0,0,1-.31,7.86,36.56,36.56,0,0,0-5.22,4.31,35.41,35.41,0,0,0-7.56,11.22,35,35,0,0,0-2.42,8.79h17.69s6.19-3,8.08-8.32a5.8,5.8,0,0,1,5.43-3.93h2.24a4,4,0,0,1,4,3.94,9.84,9.84,0,0,1-.93,4.27c-9.5,20.15-24.78,32.54-43,42.13h47.57a3.77,3.77,0,0,1,3.83,3.44A3.64,3.64,0,0,1,251.48,217.32Z"/><path class="cls-1" d="M.71,482.28V442.2H7.59v40.08Z"/><path class="cls-1" d="M15.48,482.28V442.2h6.39l8.38,22.93h.11V442.2h6.21v40.08h-6l-8.77-25H21.7v25Z"/><path class="cls-1" d="M59.82,442.2h6.77l-8.38,40.08H51.32L42.94,442.2h6.77l5,27.81h.11Z"/><path class="cls-1" d="M72.86,482.28V442.2H91.28v6H79.74v10.32h8.88v6H79.74v11.76H92.06v6Z"/><path class="cls-1" d="M110.54,452.08c-.28-3.44-2.11-4.44-3.66-4.44-2.22,0-3.44,1.45-3.44,3.94,0,6.83,14,10.11,14,21,0,6.61-4.44,10.27-10.87,10.27s-10-5.1-10.33-11.1l6.55-.94c.28,4,1.89,6,4.11,6,2.38,0,4-1.28,4-3.66,0-7.94-14-10.05-14-21.54,0-6.38,3.88-10,10.65-10,5.61,0,8.94,4.05,9.55,9.71Z"/><path class="cls-1" d="M128.8,448.2h-6.66v-6h20.2v6h-6.66v34.08H128.8Z"/><path class="cls-1" d="M176.63,442.2v40.08h-6V451h-.11l-6.22,31.31H161L154.76,451h-.11v31.31h-6V442.2h9l4.89,23.43h.11l4.88-23.43Z"/><path class="cls-1" d="M184,482.28V442.2h18.42v6H190.85v10.32h8.88v6h-8.88v11.76h12.32v6Z"/><path class="cls-1" d="M209.39,482.28V442.2h6.38l8.38,22.93h.11V442.2h6.21v40.08h-6l-8.77-25h-.11v25Z"/><path class="cls-1" d="M243.52,448.2h-6.66v-6h20.2v6H250.4v34.08h-6.88Z"/><path class="cls-1" d="M275.87,452.08c-.27-3.44-2.11-4.44-3.66-4.44-2.22,0-3.44,1.45-3.44,3.94,0,6.83,14,10.11,14,21,0,6.61-4.44,10.27-10.88,10.27s-10.05-5.1-10.33-11.1l6.55-.94c.28,4,1.89,6,4.11,6,2.39,0,4-1.28,4-3.66,0-7.94-14-10.05-14-21.54,0-6.38,3.89-10,10.66-10,5.6,0,8.93,4.05,9.54,9.71Z"/><rect y="294.8" width="283.46" height="136.06" rx="5.68"/><path class="cls-2" d="M44.22,410.58H28.35l17.59-95.49H66.3l17.6,95.49H68l-2.91-21.16h-18Zm5.29-35.45H62.73l-6.48-41H56Z"/><path class="cls-2" d="M204.86,338.23c0-13.48,7.94-24.46,25.13-24.46s25.13,11,25.13,24.46v49.2c0,13.5-7.94,24.47-25.13,24.47s-25.13-11-25.13-24.47ZM221.26,387c0,7.14,2.12,10.58,8.73,10.58s8.73-3.44,8.73-10.58V338.63c0-7.14-2.12-10.58-8.73-10.58s-8.73,3.44-8.73,10.58Z"/><path class="cls-2" d="M105.82,410.58H89.42V315.09h23c18.39,0,27.78,7.8,27.78,28.17,0,15.34-6,21.56-11.51,24.07l13.89,43.25H125.93L114.29,371a7.29,7.29,0,0,1-7.38-3h-1.09Zm0-52.64h5.82c8.86,0,12.17-3.31,12.17-14.68s-3.31-14.68-12.17-14.68h-5.82Z"/><path class="cls-2" d="M197.36,346v-7.81c0-13.49-7.93-24.46-25.13-24.46s-25.13,11-25.13,24.46v49.2c0,13.5,7.94,24.47,25.13,24.47s25.13-11,25.13-24.47V362.17H170.5v12.09c2.46,0,4.82.07,6.74-1.38a6.75,6.75,0,0,0,2.46-4.16H181V387c0,7.14-2.11,10.58-8.73,10.58s-8.73-3.44-8.73-10.58V338.63c0-7.14,2.12-10.58,8.73-10.58s8.73,3.44,8.73,10.58V346Z"/></g></g></svg>