<svg width="284" height="284" viewBox="0 0 284 284" fill="none" xmlns="http://www.w3.org/2000/svg">
<path d="M8.86607e-06 5.66001V277.81C7.70261e-06 278.553 0.14648 279.288 0.431044 279.974C0.715608 280.661 1.13268 281.284 1.65839 281.809C2.1841 282.333 2.80813 282.749 3.49478 283.033C4.18142 283.316 4.9172 283.461 5.66001 283.46H277.81C279.308 283.46 280.746 282.865 281.805 281.805C282.865 280.746 283.46 279.308 283.46 277.81V5.66001C283.461 4.9172 283.316 4.18142 283.033 3.49478C282.749 2.80813 282.333 2.1841 281.809 1.65839C281.284 1.13268 280.661 0.715608 279.974 0.431044C279.288 0.14648 278.553 7.70261e-06 277.81 8.86607e-06H5.66001C4.91636 -0.0013085 4.17976 0.144193 3.49246 0.428168C2.80517 0.712143 2.18069 1.129 1.65485 1.65485C1.129 2.18069 0.712143 2.80517 0.428168 3.49246C0.144193 4.17976 -0.0013085 4.91636 8.86607e-06 5.66001V5.66001ZM251.48 217.32H178.78C178.285 217.321 177.794 217.22 177.339 217.025C176.884 216.83 176.474 216.544 176.133 216.184C175.792 215.825 175.528 215.399 175.358 214.934C175.187 214.47 175.113 213.975 175.14 213.48C175.219 212.517 175.662 211.621 176.38 210.974C177.097 210.327 178.034 209.979 179 210H186.56L188.9 207.66C189.937 206.623 190.647 205.304 190.942 203.867C191.238 202.431 191.105 200.939 190.561 199.577C190.018 198.215 189.086 197.042 187.883 196.203C186.679 195.365 185.256 194.898 183.79 194.86C182.727 194.85 181.674 195.056 180.694 195.467C179.713 195.878 178.828 196.485 178.09 197.25L159.7 215.66C158.639 216.721 157.2 217.318 155.7 217.32H145.87C145.375 217.321 144.884 217.22 144.429 217.025C143.974 216.83 143.564 216.544 143.223 216.184C142.882 215.825 142.618 215.399 142.448 214.934C142.277 214.47 142.203 213.975 142.23 213.48C142.318 212.528 142.763 211.644 143.475 211.007C144.187 210.369 145.114 210.023 146.07 210.04H151.84L154.17 207.7C155.206 206.663 155.916 205.346 156.212 203.91C156.508 202.474 156.376 200.983 155.834 199.621C155.291 198.259 154.361 197.086 153.159 196.247C151.957 195.408 150.535 194.94 149.07 194.9C148.007 194.89 146.954 195.096 145.974 195.507C144.993 195.918 144.108 196.525 143.37 197.29L125 215.66C123.937 216.718 122.5 217.314 121 217.32H111.39C110.896 217.319 110.406 217.218 109.952 217.022C109.498 216.826 109.089 216.54 108.749 216.181C108.41 215.821 108.147 215.396 107.977 214.932C107.807 214.468 107.733 213.974 107.76 213.48C107.846 212.527 108.29 211.642 109.003 211.004C109.715 210.365 110.643 210.021 111.6 210.04H117.13L119.47 207.7C120.506 206.663 121.216 205.346 121.512 203.91C121.808 202.474 121.676 200.983 121.133 199.621C120.591 198.259 119.661 197.086 118.459 196.247C117.257 195.408 115.835 194.94 114.37 194.9C113.306 194.89 112.251 195.097 111.269 195.508C110.287 195.919 109.4 196.525 108.66 197.29L90.27 215.66C89.2095 216.722 87.7707 217.319 86.27 217.32H32C31.5055 217.319 31.0164 217.218 30.5624 217.022C30.1083 216.826 29.699 216.54 29.3593 216.181C29.0196 215.821 28.7567 215.396 28.5866 214.932C28.4166 214.468 28.3428 213.974 28.37 213.48C28.4461 212.523 28.8831 211.632 29.5925 210.985C30.3019 210.339 31.2305 209.987 32.19 210H66.81C40 187.58 40.64 138.75 41.42 124.87C41.4861 123.855 41.9366 122.903 42.6797 122.208C43.4228 121.513 44.4027 121.128 45.42 121.13H47.59C48.3716 121.12 49.1471 121.269 49.8687 121.57C50.5904 121.87 51.2429 122.315 51.7862 122.877C52.3295 123.439 52.752 124.106 53.0278 124.838C53.3037 125.569 53.4269 126.349 53.39 127.13C52.37 145.05 71 172 86.23 172H194.75C187.758 166.858 180.279 162.413 172.42 158.73C166.615 156.091 160.51 154.166 154.24 153C141.372 150.379 128.108 150.379 115.24 153C112.01 153.66 104.65 156 98.24 158.15C97.3258 158.455 96.3417 158.48 95.4128 158.224C94.4838 157.968 93.6519 157.442 93.0228 156.712C92.3937 155.982 91.9957 155.082 91.8795 154.125C91.7633 153.169 91.934 152.199 92.37 151.34C93.37 149.4 94.16 147.75 94.47 147.02C99.4694 135.169 100.816 122.096 98.3381 109.475C95.8599 96.8538 89.6694 85.2603 80.56 76.18L80.37 75.98C79.65 75.2627 79.1866 74.328 79.0515 73.3207C78.9165 72.3134 79.1174 71.2897 79.6231 70.4081C80.1288 69.5265 80.9111 68.8363 81.8488 68.4443C82.7866 68.0524 83.8273 67.9805 84.81 68.24C101.584 72.8302 118.034 78.5328 134.05 85.31C157.509 95.2299 179.948 107.407 201.05 121.67C209.517 127.39 217.743 133.423 225.73 139.77C226.331 140.246 226.811 140.857 227.131 141.554C227.451 142.25 227.602 143.013 227.572 143.779C227.541 144.545 227.331 145.293 226.957 145.962C226.583 146.631 226.056 147.203 225.42 147.63C223.55 148.902 221.803 150.345 220.2 151.94C216.982 155.159 214.415 158.969 212.64 163.16C211.454 165.972 210.64 168.927 210.22 171.95H227.91C227.91 171.95 234.1 168.95 235.99 163.63C236.377 162.494 237.107 161.505 238.08 160.801C239.052 160.097 240.219 159.713 241.42 159.7H243.66C244.711 159.7 245.719 160.113 246.467 160.85C247.216 161.588 247.644 162.59 247.66 163.64C247.674 165.115 247.356 166.574 246.73 167.91C237.23 188.06 221.95 200.45 203.73 210.04H251.3C252.256 210.021 253.183 210.366 253.894 211.005C254.605 211.643 255.047 212.528 255.13 213.48C255.157 213.975 255.083 214.471 254.912 214.937C254.74 215.402 254.476 215.828 254.134 216.188C253.792 216.547 253.38 216.833 252.924 217.028C252.468 217.223 251.976 217.322 251.48 217.32V217.32Z" fill="#007F3F"/>
</svg>
